<?xml version="1.0" standalone="no"?>
<!DOCTYPE svg PUBLIC "-//W3C//DTD SVG 20010904//EN"
 "http://www.w3.org/TR/2001/REC-SVG-20010904/DTD/svg10.dtd">
<svg version="1.0" xmlns="http://www.w3.org/2000/svg"
 width="300.000000pt" height="200.000000pt" viewBox="0 0 300.000000 200.000000"
 preserveAspectRatio="xMidYMid meet">
<metadata>
Created by potrace 1.10, written by Peter Selinger 2001-2011
</metadata>
<g transform="translate(0.000000,200.000000) scale(0.100000,-0.100000)"
fill="#000000" stroke="none">
<path d="M1073 1813 c-31 -26 -41 -78 -36 -180 4 -60 1 -103 -7 -129 -8 -23
-13 -75 -11 -124 1 -47 -3 -111 -8 -144 -6 -33 -7 -66 -2 -75 5 -9 11 -36 15
-61 5 -40 5 -42 -6 -20 -10 21 -13 -5 -19 -157 -4 -101 -10 -194 -13 -207 -3
-14 -2 -28 4 -31 5 -3 10 2 10 11 0 10 3 15 6 12 3 -3 -1 -37 -9 -74 -8 -38
-15 -127 -16 -197 l-2 -128 30 -29 29 -30 354 -1 c426 -2 408 -3 432 21 18 17
19 34 18 182 -1 249 -13 663 -26 908 -4 69 -9 172 -11 230 -6 119 -18 146 -67
155 -18 3 -46 7 -63 10 -16 3 -52 8 -80 11 -75 8 -435 54 -470 60 -22 4 -38 0
-52 -13z m212 -28 c292 -40 451 -64 469 -71 9 -3 18 -16 21 -28 5 -22 17 -359
36 -1000 10 -347 10 -379 -5 -395 -15 -14 -54 -16 -389 -13 -336 4 -374 6
-390 21 -17 16 -17 32 -7 282 6 145 19 474 29 732 18 449 23 497 50 497 3 0
87 -11 186 -25z"/>
<path d="M1096 1781 c-11 -16 -56 -1123 -56 -1357 0 -93 3 -113 16 -118 9 -3
138 -6 288 -6 l273 0 -5 25 c-4 22 -1 25 23 25 24 0 27 -3 23 -24 -5 -23 -2
-25 56 -28 39 -3 66 0 75 8 15 13 8 282 -24 1029 -8 182 -15 335 -15 340 0 6
-21 11 -47 11 -97 3 -124 7 -119 21 7 17 -11 17 -17 1 -4 -10 -8 -10 -15 1 -8
10 -11 11 -17 1 -6 -10 -11 -9 -20 3 -9 13 -57 23 -186 42 -96 14 -186 28
-201 31 -14 3 -29 1 -32 -5z m134 -31 c181 -24 227 -33 254 -47 16 -8 59 -20
95 -25 119 -17 130 -20 139 -32 6 -6 13 -103 16 -216 4 -113 11 -315 16 -450
5 -135 12 -336 16 -447 l7 -203 -44 0 c-33 0 -47 5 -57 20 -7 11 -23 20 -37
20 -14 0 -29 -8 -35 -20 -16 -29 -110 -29 -128 0 -7 11 -23 20 -36 20 -12 0
-31 -9 -41 -20 -28 -30 -101 -28 -131 5 -25 27 -46 25 -78 -8 -15 -16 -27 -18
-64 -13 -25 3 -48 8 -50 11 -5 5 15 638 23 745 3 30 7 168 10 305 8 316 9 337
18 353 10 14 20 14 107 2z m20 -1415 c0 -28 -3 -30 -32 -14 -21 11 -21 12 -3
25 27 20 35 17 35 -11z m208 -4 c-2 -9 -11 -17 -21 -19 -21 -4 -35 27 -17 38
19 12 42 0 38 -19z"/>
<path d="M1142 1345 c-17 -22 -20 -42 -22 -143 -1 -145 -1 -187 0 -209 1 -10
-2 -37 -6 -61 -6 -37 -3 -46 17 -68 13 -13 29 -22 37 -19 16 6 98 -11 130 -27
17 -9 28 -9 41 -1 11 7 57 9 125 6 127 -5 136 -1 132 64 -3 51 -25 75 -66 72
-58 -3 -58 -3 -56 56 2 34 9 62 19 73 23 25 21 69 -3 90 -11 9 -39 19 -63 22
l-42 5 -3 49 c-4 58 -26 80 -84 83 -20 1 -50 9 -67 17 -42 22 -66 20 -89 -9z
m86 -23 c3 -9 -3 -11 -22 -6 -16 4 -26 2 -26 -5 0 -6 9 -11 20 -11 11 0 20 -4
20 -10 0 -5 -9 -10 -20 -10 -11 0 -20 -4 -20 -10 0 -5 11 -10 25 -10 14 0 25
-4 25 -10 0 -11 -30 -13 -54 -4 -11 4 -16 19 -16 51 0 44 0 44 32 41 17 -2 33
-9 36 -16z m56 -18 c10 -4 16 -18 16 -41 0 -28 -3 -34 -16 -29 -9 3 -22 6 -30
6 -9 0 -14 11 -14 28 0 40 11 49 44 36z m66 -5 c11 -8 12 -12 3 -16 -15 -6
-17 -33 -3 -33 6 0 10 -4 10 -10 0 -11 -40 -14 -41 -2 0 4 -2 22 -5 40 -4 34
8 41 36 21z m-132 -97 c3 -9 -3 -11 -24 -6 -19 5 -25 4 -20 -5 4 -6 13 -11 20
-11 8 0 19 -7 26 -16 11 -12 11 -18 -3 -31 -16 -17 -67 -11 -67 7 0 6 11 8 25
4 14 -3 25 -2 25 3 0 6 -11 15 -25 21 -24 11 -32 31 -18 46 11 11 56 2 61 -12z
m42 -37 c0 -25 -4 -45 -10 -45 -5 0 -10 20 -10 45 0 25 5 45 10 45 6 0 10 -20
10 -45z m72 4 c3 -8 10 -8 26 2 18 12 24 11 37 -1 22 -22 8 -60 -21 -60 -14 0
-28 8 -32 18 -5 14 -13 17 -32 11 -24 -7 -24 -7 -2 -8 12 -1 22 -6 22 -12 0
-16 -41 -6 -53 12 -6 9 -7 24 -4 33 7 18 53 22 59 5z m146 -36 c3 -28 0 -33
-17 -33 -13 0 -21 -7 -21 -16 0 -9 -6 -14 -12 -11 -7 2 -13 9 -12 15 1 7 2 28
3 48 1 32 3 35 29 32 22 -2 28 -8 30 -35z m-264 -39 c26 -10 18 -25 -11 -22
-24 3 -28 -1 -28 -22 0 -20 6 -26 28 -28 18 -2 27 1 27 11 0 8 6 20 14 26 22
18 56 -3 56 -35 0 -27 -21 -40 -48 -28 -9 4 -35 8 -57 8 -38 1 -40 3 -43 34
-5 50 20 72 62 56z m156 -60 c0 -44 -1 -45 -27 -42 -22 2 -29 9 -31 31 -3 22
1 30 17 34 12 3 21 9 21 14 0 5 5 9 10 9 6 0 10 -21 10 -46z m78 -6 c2 -13 -3
-18 -20 -19 l-23 -2 23 -4 c26 -5 20 -23 -7 -23 -26 0 -41 22 -34 49 4 17 12
21 32 19 15 -2 27 -10 29 -20z m-227 -77 c8 -11 19 -16 31 -13 10 2 25 -2 34
-9 14 -11 13 -15 -8 -31 -22 -17 -22 -18 -3 -18 16 0 17 -2 6 -9 -21 -13 -51
5 -51 30 0 11 -5 17 -10 14 -7 -4 -7 -13 0 -26 8 -15 7 -19 -4 -19 -8 0 -18 9
-21 20 -8 26 -25 26 -25 -1 0 -11 -5 -19 -11 -17 -6 2 -10 7 -10 11 1 4 1 25
1 47 0 38 2 40 30 40 18 0 34 -7 41 -19z m346 -49 c-21 -4 -23 -32 -2 -32 17
0 20 -16 4 -26 -15 -9 -37 16 -39 46 -4 49 -2 52 27 33 22 -14 24 -19 10 -21z
m-199 -5 c3 -22 -1 -30 -17 -34 -12 -3 -21 -12 -21 -20 0 -8 -6 -13 -12 -10
-7 2 -13 11 -12 20 4 82 3 78 32 75 21 -2 28 -9 30 -31z m69 18 c3 -9 -2 -22
-13 -31 -17 -12 -17 -13 -1 -8 9 3 17 2 17 -4 0 -15 -22 -21 -42 -10 -18 9
-25 48 -11 61 12 13 44 7 50 -8z m64 5 c12 -7 19 -21 19 -40 0 -27 -3 -30 -30
-30 -23 0 -31 5 -36 25 -4 15 -1 32 6 40 15 18 16 18 41 5z"/>
</g>
</svg>
