<svg version="1.1" id="Layer_1" xmlns="http://www.w3.org/2000/svg" xmlns:xlink="http://www.w3.org/1999/xlink" x="0px" y="0px"
	 width="100%" viewBox="0 0 576 575" enable-background="new 0 0 576 575" xml:space="preserve">
<path fill="#000000" opacity="1.000000" stroke="none" 
	d="
M380.000000,576.000000 
	C253.333328,576.000000 127.166664,576.000000 1.000000,576.000000 
	C1.000000,384.333344 1.000000,192.666672 1.000000,1.000000 
	C193.000000,1.000000 385.000000,1.000000 577.000000,1.000000 
	C577.000000,192.666672 577.000000,384.333344 577.000000,576.000000 
	C511.500000,576.000000 446.000000,576.000000 380.000000,576.000000 
M157.262619,220.084778 
	C157.262619,210.863815 157.262619,201.642853 157.262619,192.368942 
	C153.544968,192.368942 150.361618,192.368942 147.156448,192.368942 
	C147.156448,203.497849 147.156448,214.252335 147.020416,225.934265 
	C147.020416,234.497192 147.020416,243.060120 147.020416,251.643707 
	C150.717682,251.643707 153.911301,251.643707 157.049957,251.643707 
	C157.049957,241.186005 157.049957,231.093826 157.262619,220.084778 
M149.920837,332.873810 
	C152.732437,340.334717 159.170013,344.793488 167.557434,344.816376 
	C175.498703,344.838074 182.075851,341.908295 185.356064,334.347290 
	C189.280899,325.300354 189.265656,316.289795 182.830383,307.333344 
	C177.029480,301.021301 169.797318,299.612793 161.899490,301.846863 
	C150.091354,305.187103 144.745422,319.038483 149.920837,332.873810 
M194.697479,331.884186 
	C198.695053,344.787659 209.178894,348.359833 220.670059,340.653503 
	C222.658051,346.574188 227.159012,343.224640 230.840698,343.847778 
	C230.840698,331.592560 230.840698,319.799622 230.987991,307.078796 
	C230.987991,299.476044 230.987991,291.873322 230.987991,284.196472 
	C227.309052,284.196472 224.202759,284.196472 220.686813,284.196472 
	C220.686813,287.704742 220.686813,291.015778 220.686813,294.326782 
	C220.686813,297.555420 220.686813,300.784058 220.686813,304.751495 
	C219.072586,303.858307 218.384018,303.474335 217.692734,303.095245 
	C209.404556,298.550262 200.276657,301.218353 196.198975,309.741028 
	C192.931076,316.571198 192.633011,323.807343 194.697479,331.884186 
M118.516792,218.462936 
	C116.820755,217.785202 115.065048,217.225494 113.441437,216.404526 
	C110.313187,214.822708 107.690903,212.745544 108.555420,208.679459 
	C109.427025,204.580093 112.509178,203.208450 116.288391,202.893341 
	C123.252571,202.312744 125.491722,203.858582 129.127869,211.853348 
	C130.697815,211.853348 132.357895,211.890549 134.015533,211.842621 
	C135.588577,211.797150 137.159058,211.662552 138.609024,211.574539 
	C138.750580,210.686996 138.890106,210.349731 138.840820,210.042801 
	C137.489548,201.624115 132.084137,196.333908 123.310768,194.818604 
	C112.709709,192.987610 102.865433,196.550797 99.076263,203.590363 
	C96.092964,209.132767 97.365883,216.918854 102.675766,220.696457 
	C106.375053,223.328232 110.863785,224.850357 115.616035,227.255554 
	C119.025642,228.888626 122.672371,230.168411 125.778732,232.253296 
	C128.935455,234.372025 128.896301,239.193085 126.268227,241.908768 
	C121.372368,246.967834 109.424934,244.170547 106.876129,237.582703 
	C106.359222,236.246643 104.449844,234.960495 102.956535,234.607834 
	C100.820007,234.103287 98.475533,234.479309 94.355896,234.479309 
	C96.795067,239.174774 97.954048,243.080536 100.411980,245.821472 
	C107.608910,253.847092 123.830215,255.223053 132.739044,249.076401 
	C140.457382,243.751129 141.537125,231.766663 134.124802,226.266617 
	C129.708572,222.989700 124.090073,221.333084 118.516792,218.462936 
M109.157722,125.706154 
	C109.157722,121.254646 109.157722,116.803131 109.157722,111.722557 
	C118.297478,111.722557 127.012863,111.722557 135.691666,111.722557 
	C135.691666,108.505249 135.691666,105.933792 135.691666,103.378586 
	C123.135742,103.378586 110.923637,103.378586 98.538818,103.378586 
	C98.538818,113.824547 98.538818,123.929039 98.342499,134.946762 
	C98.342499,143.214111 98.342499,151.481461 98.342499,159.723633 
	C111.256203,159.723633 123.513969,159.723633 135.908020,159.723633 
	C135.908020,156.977570 135.908020,154.524338 135.908020,151.440033 
	C127.016388,151.440033 118.285522,151.440033 109.456375,151.440033 
	C109.456375,145.590591 109.456375,140.380020 109.456375,134.789154 
	C117.099434,134.789154 124.371002,134.789154 131.811981,134.789154 
	C131.811981,131.990433 131.811981,129.586670 131.811981,126.586113 
	C124.098892,126.586113 116.648354,126.586113 109.157722,125.706154 
M108.240654,326.063446 
	C108.161400,319.766602 107.583466,313.426819 108.121063,307.183075 
	C108.906075,298.065857 115.079163,293.574188 123.417870,295.134460 
	C129.392685,296.252441 130.918701,300.992096 131.923523,305.811829 
	C135.616516,305.811829 138.879532,305.811829 142.154190,305.811829 
	C141.450165,296.021118 135.678665,289.006500 126.901848,287.017395 
	C115.434013,284.418427 104.933479,288.329041 100.371300,297.646118 
	C95.252480,308.100006 95.332748,319.047791 98.954033,330.751648 
	C103.165031,342.908936 115.788513,346.719940 127.095131,344.026489 
	C134.141129,342.347961 142.818741,335.413391 141.707367,325.143829 
	C140.128738,325.143829 138.501343,325.114838 136.875458,325.152039 
	C135.268784,325.188782 133.663635,325.292450 132.207489,325.359802 
	C129.244949,333.479279 127.651299,335.234467 122.765160,335.969727 
	C115.371910,337.082306 110.804688,334.282074 108.240654,326.063446 
M165.239151,127.778748 
	C165.536041,129.784927 165.832932,131.791107 166.196701,134.249268 
	C162.870209,134.249268 160.362762,134.039307 157.907166,134.306366 
	C155.279816,134.592102 152.617126,135.076675 150.118256,135.916153 
	C144.020477,137.964691 140.729263,142.802704 141.076721,148.716324 
	C141.408005,154.354630 145.232986,158.563538 151.171204,160.250870 
	C156.637085,161.804001 161.319336,160.151688 165.897232,157.044693 
	C168.995224,162.305099 173.715210,159.313080 177.414474,159.844818 
	C177.113983,155.264771 176.726486,150.983398 176.577698,146.693756 
	C176.375671,140.869110 176.762466,134.989563 176.073868,129.231979 
	C175.765503,126.653862 173.458237,124.314819 171.882462,121.198166 
	C165.703308,115.495361 158.512970,116.143616 151.400375,118.453316 
	C146.268875,120.119690 142.660614,123.667992 142.008759,130.829865 
	C145.957870,129.919083 150.316391,130.172836 152.579483,128.118378 
	C156.730484,124.350067 160.115143,123.357796 165.239151,127.778748 
M201.920929,450.081177 
	C201.920929,444.554596 201.920929,439.028015 201.920929,433.173920 
	C213.267792,439.410614 223.183640,437.094910 226.747284,426.920380 
	C230.610931,415.889374 231.232803,404.796448 220.962769,395.216736 
	C214.452530,391.497986 208.267593,392.212128 202.367752,396.607605 
	C199.488266,391.892426 195.403671,394.117920 191.767380,394.221130 
	C191.767380,401.817108 191.767380,408.947632 191.552567,416.984497 
	C191.552567,428.608429 191.552567,440.232361 191.552567,451.940002 
	C195.135529,451.940002 198.069458,451.940002 201.544006,451.965912 
	C201.625748,451.647217 201.707489,451.328491 201.920929,450.081177 
M132.699066,382.236572 
	C121.695755,376.605621 110.034332,380.042542 98.551590,378.914917 
	C98.551590,388.856323 98.551590,397.948822 98.344856,407.951904 
	C98.344856,417.212189 98.344856,426.472473 98.344856,435.743835 
	C102.202812,435.743835 105.457397,435.743835 109.240944,435.743835 
	C109.240944,428.605408 109.240944,421.716461 109.240944,414.914490 
	C119.108467,413.841431 119.094742,413.848389 123.082176,421.698425 
	C125.111366,425.693268 127.090080,429.721619 129.333893,433.594421 
	C129.950592,434.658905 131.380508,435.774872 132.541260,435.899628 
	C135.551331,436.223145 138.619293,436.008240 142.278305,436.008240 
	C139.891159,431.421570 137.928375,427.606812 135.925171,423.813385 
	C133.871948,419.925293 131.779175,416.058105 129.744629,412.258179 
	C142.269730,403.589294 143.449265,391.363281 132.699066,382.236572 
M253.141968,265.921265 
	C253.774399,266.669495 254.354431,268.001007 255.048477,268.063385 
	C257.817444,268.312164 260.621918,268.165924 263.938843,268.165924 
	C263.938843,261.603851 263.938843,255.577744 263.938843,249.279099 
	C275.801025,255.994308 286.162781,252.261932 289.593048,240.354935 
	C291.623871,233.305557 291.493591,226.174240 288.974518,219.236801 
	C286.250397,211.734741 279.319580,207.642853 271.566162,209.224670 
	C268.744568,209.800308 266.149780,211.487595 263.648529,212.581528 
	C261.158051,207.323853 256.872986,210.732285 253.135803,209.920593 
	C253.135803,228.716064 253.135803,246.868256 253.141968,265.921265 
M299.145416,393.045227 
	C286.489960,392.852783 279.287048,397.514496 279.470062,406.785217 
	C282.931976,405.966888 287.391327,406.238983 289.239044,404.174072 
	C292.222412,400.840027 295.191925,399.919617 298.826935,401.092255 
	C302.868805,402.396118 303.262390,405.942596 302.772491,409.219269 
	C296.856323,410.313263 291.012177,410.791473 285.590271,412.562378 
	C279.924103,414.413055 277.515259,419.323486 277.973450,425.179657 
	C278.358795,430.105286 281.885529,434.309418 286.988342,435.984833 
	C292.830353,437.902954 298.055634,436.543091 302.771759,432.869781 
	C305.164795,436.504791 306.464020,436.779480 314.229828,435.606293 
	C313.879608,431.318451 313.394989,427.068939 313.222748,422.806824 
	C313.048218,418.487610 313.189789,414.155884 313.179993,409.829681 
	C313.155792,399.116730 310.494995,395.744812 299.145416,393.045227 
M184.724731,414.431702 
	C184.617233,412.941925 184.593735,411.440521 184.388748,409.964264 
	C182.922424,399.403687 177.254501,393.548553 168.035904,393.015717 
	C157.628128,392.414124 150.077164,397.804108 147.716049,408.180450 
	C146.849716,411.987732 146.781601,416.129669 147.169083,420.037689 
	C148.003113,428.449310 154.159348,434.528778 162.963135,436.372559 
	C171.529755,438.166656 179.376587,435.247772 183.410843,428.634399 
	C181.987015,427.122925 180.527634,425.573669 178.877029,423.821442 
	C174.268799,427.963989 169.203064,430.186432 163.369766,427.564880 
	C159.655029,425.895477 157.682983,422.709106 157.676331,418.529938 
	C158.194290,418.311493 158.483688,418.083801 158.774216,418.082367 
	C166.089203,418.045715 173.404404,418.050201 180.719299,418.003937 
	C182.594833,417.992065 185.027863,418.664520 184.724731,414.431702 
M276.374817,325.058624 
	C276.334290,322.735565 276.457031,320.396057 276.224854,318.092316 
	C275.240753,308.329529 269.569794,302.057922 260.983154,301.075928 
	C250.915421,299.924561 242.689880,305.005768 240.004074,314.680511 
	C238.961349,318.436584 238.849380,322.562592 238.955719,326.502747 
	C239.176132,334.669739 244.748917,341.585602 252.407852,343.855682 
	C261.369904,346.511993 269.990479,344.007111 275.397278,336.927216 
	C273.908630,335.301971 272.370483,333.622742 270.852173,331.965118 
	C259.883179,339.839111 251.045868,337.441803 249.452469,325.781097 
	C258.303406,325.781097 267.075562,325.781097 276.374817,325.058624 
M253.927246,428.379028 
	C247.995285,426.428955 245.944321,423.756348 246.159470,417.807251 
	C254.883667,417.807251 263.628967,417.807251 272.879303,417.807251 
	C272.645233,414.415314 272.674347,411.432922 272.195953,408.534271 
	C270.672852,399.305725 265.429291,394.026917 257.130157,393.067108 
	C247.778885,391.985626 239.530975,396.045929 237.031006,404.857086 
	C235.344788,410.800201 235.089691,417.736420 236.343643,423.782654 
	C238.027802,431.903351 244.840530,435.832397 252.881927,436.692505 
	C260.318939,437.487946 266.937317,435.605652 271.640381,428.991730 
	C269.871887,427.298889 268.334351,425.827148 267.603699,425.127747 
	C263.032623,426.355133 258.903442,427.463867 253.927246,428.379028 
M246.196030,233.016693 
	C246.203690,230.858887 246.345596,228.691711 246.195923,226.544861 
	C245.524887,216.920532 239.893219,210.329330 231.414078,209.117615 
	C221.466888,207.696121 212.676132,212.624664 210.143585,222.180664 
	C208.825562,227.153885 208.632401,232.776184 209.418381,237.876083 
	C210.685333,246.096664 217.700272,251.545059 226.634613,252.720947 
	C234.494324,253.755386 241.741165,250.651031 244.775894,245.232880 
	C243.222092,243.456970 241.748962,241.773254 240.207047,240.010925 
	C235.963242,244.309158 231.015198,245.874664 225.523941,243.763138 
	C221.493256,242.213242 219.596451,238.735367 219.246445,233.771515 
	C228.225754,233.771515 236.987717,233.771515 246.196030,233.016693 
M192.467468,234.011047 
	C195.928940,234.011047 199.390427,234.011047 203.255630,234.011047 
	C203.255630,231.479782 203.370926,229.339508 203.236160,227.215088 
	C202.566315,216.656113 196.707214,209.937195 187.484650,209.052765 
	C177.106827,208.057526 168.534180,213.831085 166.429092,224.005188 
	C165.537689,228.313400 165.542862,233.024857 166.207458,237.390610 
	C167.472458,245.700409 174.094513,251.281357 183.130676,252.639877 
	C191.224976,253.856781 198.727005,250.721146 202.174286,244.370163 
	C200.711334,242.988495 199.153625,241.517334 197.430176,239.889648 
	C192.895813,244.190491 187.783768,246.172714 181.918213,243.472412 
	C178.173172,241.748306 176.397476,238.472504 176.315247,234.010956 
	C181.505844,234.010956 186.494003,234.010956 192.467468,234.011047 
M187.991623,136.522034 
	C187.991089,140.180359 187.962158,143.838928 187.995270,147.496948 
	C188.098877,158.944672 194.784225,163.429413 205.892792,159.440994 
	C205.892792,157.205475 205.892792,154.944275 205.892792,154.074661 
	C202.884308,152.019119 198.976166,150.682114 198.835815,149.025818 
	C198.172638,141.199524 198.540039,133.285904 198.540039,125.311699 
	C201.250549,125.124611 203.342865,124.980194 205.548431,124.827957 
	C205.548431,122.416626 205.548431,120.351837 205.548431,118.137535 
	C203.063278,117.891640 200.851501,117.672791 198.192276,117.409668 
	C198.192276,113.862869 198.192276,110.770958 198.192276,107.582748 
	C194.599808,107.582748 191.515488,107.582748 188.223785,107.582748 
	C188.053635,111.089752 187.896713,114.324112 187.739517,117.564018 
	C185.545624,117.770126 183.766830,117.937233 181.746643,118.127029 
	C181.746643,120.390892 181.746643,122.480721 181.746643,124.802956 
	C183.842575,124.989067 185.744980,125.157990 187.991806,125.357491 
	C187.991806,128.938721 187.991806,132.235748 187.991623,136.522034 
M335.763031,426.489166 
	C335.763031,418.107910 335.763031,409.726654 335.763031,401.273834 
	C337.997009,401.115784 340.240051,400.957123 342.398071,400.804443 
	C342.398071,398.279327 342.398071,396.211578 342.398071,394.010498 
	C339.829956,393.856720 337.567322,393.721252 334.800171,393.555542 
	C334.800171,389.973785 334.800171,386.743317 334.800171,383.522766 
	C331.327606,383.522766 328.392792,383.522766 325.142822,383.522766 
	C324.990784,386.957886 324.848206,390.180267 324.700562,393.516571 
	C322.437836,393.753418 320.516663,393.954529 318.565460,394.158783 
	C318.565460,396.514771 318.565460,398.602325 318.565460,400.856689 
	C320.738617,401.018066 322.652527,401.160217 324.908264,401.327728 
	C324.908264,408.794189 324.904022,415.916168 324.909180,423.038177 
	C324.917877,435.001221 331.135101,439.395172 342.726868,435.598297 
	C342.726868,433.191467 342.726868,430.783569 342.726868,428.768585 
	C340.330414,428.191711 338.302612,427.703552 335.763031,426.489166 
z"/>
<path fill="#90A9B5" opacity="1.000000" stroke="none" 
	d="
M253.138885,265.470856 
	C253.135803,246.868256 253.135803,228.716064 253.135803,209.920593 
	C256.872986,210.732285 261.158051,207.323853 263.648529,212.581528 
	C266.149780,211.487595 268.744568,209.800308 271.566162,209.224670 
	C279.319580,207.642853 286.250397,211.734741 288.974518,219.236801 
	C291.493591,226.174240 291.623871,233.305557 289.593048,240.354935 
	C286.162781,252.261932 275.801025,255.994308 263.938843,249.279099 
	C263.938843,255.577744 263.938843,261.603851 263.938843,268.165924 
	C260.621918,268.165924 257.817444,268.312164 255.048477,268.063385 
	C254.354431,268.001007 253.774399,266.669495 253.138885,265.470856 
M278.560211,221.297882 
	C276.040436,217.406357 272.605042,216.266846 268.211700,217.742661 
	C263.744812,219.243225 263.532623,222.783325 263.684021,226.641174 
	C263.807953,229.800430 263.893921,232.981110 263.671814,236.129364 
	C263.331451,240.953323 265.348450,243.768829 270.124542,244.526398 
	C274.627747,245.240707 278.618958,243.093109 279.256134,238.179642 
	C279.940765,232.900620 279.082825,227.421555 278.560211,221.297882 
z"/>
<path fill="#AF9CDD" opacity="1.000000" stroke="none" 
	d="
M299.579102,393.083984 
	C310.494995,395.744812 313.155792,399.116730 313.179993,409.829681 
	C313.189789,414.155884 313.048218,418.487610 313.222748,422.806824 
	C313.394989,427.068939 313.879608,431.318451 314.229828,435.606293 
	C306.464020,436.779480 305.164795,436.504791 302.771759,432.869781 
	C298.055634,436.543091 292.830353,437.902954 286.988342,435.984833 
	C281.885529,434.309418 278.358795,430.105286 277.973450,425.179657 
	C277.515259,419.323486 279.924103,414.413055 285.590271,412.562378 
	C291.012177,410.791473 296.856323,410.313263 302.772491,409.219269 
	C303.262390,405.942596 302.868805,402.396118 298.826935,401.092255 
	C295.191925,399.919617 292.222412,400.840027 289.239044,404.174072 
	C287.391327,406.238983 282.931976,405.966888 279.470062,406.785217 
	C279.287048,397.514496 286.489960,392.852783 299.579102,393.083984 
M288.380707,421.931061 
	C288.702698,427.286804 290.950226,429.437836 295.602692,428.842957 
	C301.764893,428.055054 303.646545,424.752258 302.392212,416.362213 
	C297.317963,416.585693 291.749268,415.024536 288.380707,421.931061 
z"/>
<path fill="#9FA7C8" opacity="1.000000" stroke="none" 
	d="
M133.055542,382.841217 
	C143.449265,391.363281 142.269730,403.589294 129.744629,412.258179 
	C131.779175,416.058105 133.871948,419.925293 135.925171,423.813385 
	C137.928375,427.606812 139.891159,431.421570 142.278305,436.008240 
	C138.619293,436.008240 135.551331,436.223145 132.541260,435.899628 
	C131.380508,435.774872 129.950592,434.658905 129.333893,433.594421 
	C127.090080,429.721619 125.111366,425.693268 123.082176,421.698425 
	C119.094742,413.848389 119.108467,413.841431 109.240944,414.914490 
	C109.240944,421.716461 109.240944,428.605408 109.240944,435.743835 
	C105.457397,435.743835 102.202812,435.743835 98.344856,435.743835 
	C98.344856,426.472473 98.344856,417.212189 98.756699,407.402893 
	C102.412094,405.239166 105.655640,403.624481 108.968597,402.441254 
	C109.844025,403.915741 110.482445,405.598358 111.492401,405.863007 
	C113.352875,406.350433 115.434425,405.937836 117.418907,406.019836 
	C121.745865,406.198486 125.903191,405.770630 128.064651,401.364716 
	C130.282761,396.843292 129.132370,392.699432 126.095367,388.836365 
	C128.589340,386.689728 130.822449,384.765472 133.055542,382.841217 
z"/>
<path fill="#A1A3CB" opacity="1.000000" stroke="none" 
	d="
M184.723038,414.879211 
	C185.027863,418.664520 182.594833,417.992065 180.719299,418.003937 
	C173.404404,418.050201 166.089203,418.045715 158.774216,418.082367 
	C158.483688,418.083801 158.194290,418.311493 157.676331,418.529938 
	C157.682983,422.709106 159.655029,425.895477 163.369766,427.564880 
	C169.203064,430.186432 174.268799,427.963989 178.877029,423.821442 
	C180.527634,425.573669 181.987015,427.122925 183.410843,428.634399 
	C179.376587,435.247772 171.529755,438.166656 162.963135,436.372559 
	C154.159348,434.528778 148.003113,428.449310 147.169083,420.037689 
	C146.781601,416.129669 146.849716,411.987732 147.716049,408.180450 
	C150.077164,397.804108 157.628128,392.414124 168.035904,393.015717 
	C177.254501,393.548553 182.922424,399.403687 184.388748,409.964264 
	C184.593735,411.440521 184.617233,412.941925 184.723038,414.879211 
M157.870010,409.817627 
	C163.224777,410.345886 168.579544,410.874115 173.970322,411.405914 
	C174.150681,404.864014 172.020538,401.769775 167.549454,401.133820 
	C162.880432,400.469666 159.854080,402.930389 157.870010,409.817627 
z"/>
<path fill="#9FA7C8" opacity="1.000000" stroke="none" 
	d="
M276.111267,325.419861 
	C267.075562,325.781097 258.303406,325.781097 249.452469,325.781097 
	C251.045868,337.441803 259.883179,339.839111 270.852173,331.965118 
	C272.370483,333.622742 273.908630,335.301971 275.397278,336.927216 
	C269.990479,344.007111 261.369904,346.511993 252.407852,343.855682 
	C244.748917,341.585602 239.176132,334.669739 238.955719,326.502747 
	C238.849380,322.562592 238.961349,318.436584 240.004074,314.680511 
	C242.689880,305.005768 250.915421,299.924561 260.983154,301.075928 
	C269.569794,302.057922 275.240753,308.329529 276.224854,318.092316 
	C276.457031,320.396057 276.334290,322.735565 276.111267,325.419861 
M253.692139,318.942139 
	C257.776215,318.942139 261.860291,318.942139 265.932281,318.942139 
	C265.977905,312.829224 263.750458,309.660187 259.383972,309.110077 
	C254.940720,308.550293 250.928665,311.610474 249.919189,315.997223 
	C249.285812,318.749603 250.579712,319.142273 253.692139,318.942139 
z"/>
<path fill="#A99ED6" opacity="1.000000" stroke="none" 
	d="
M254.350769,428.475800 
	C258.903442,427.463867 263.032623,426.355133 267.603699,425.127747 
	C268.334351,425.827148 269.871887,427.298889 271.640381,428.991730 
	C266.937317,435.605652 260.318939,437.487946 252.881927,436.692505 
	C244.840530,435.832397 238.027802,431.903351 236.343643,423.782654 
	C235.089691,417.736420 235.344788,410.800201 237.031006,404.857086 
	C239.530975,396.045929 247.778885,391.985626 257.130157,393.067108 
	C265.429291,394.026917 270.672852,399.305725 272.195953,408.534271 
	C272.674347,411.432922 272.645233,414.415314 272.879303,417.807251 
	C263.628967,417.807251 254.883667,417.807251 246.159470,417.807251 
	C245.944321,423.756348 247.995285,426.428955 254.350769,428.475800 
M248.761932,403.250885 
	C247.629974,405.584259 246.498001,407.917633 245.170883,410.653320 
	C251.632523,410.653320 256.860962,410.653320 262.086060,410.653320 
	C262.027771,402.003113 256.954315,398.959656 248.761932,403.250885 
z"/>
<path fill="#8EAFB3" opacity="1.000000" stroke="none" 
	d="
M245.972855,233.394104 
	C236.987717,233.771515 228.225754,233.771515 219.246445,233.771515 
	C219.596451,238.735367 221.493256,242.213242 225.523941,243.763138 
	C231.015198,245.874664 235.963242,244.309158 240.207047,240.010925 
	C241.748962,241.773254 243.222092,243.456970 244.775894,245.232880 
	C241.741165,250.651031 234.494324,253.755386 226.634613,252.720947 
	C217.700272,251.545059 210.685333,246.096664 209.418381,237.876083 
	C208.632401,232.776184 208.825562,227.153885 210.143585,222.180664 
	C212.676132,212.624664 221.466888,207.696121 231.414078,209.117615 
	C239.893219,210.329330 245.524887,216.920532 246.195923,226.544861 
	C246.345596,228.691711 246.203690,230.858887 245.972855,233.394104 
M236.015198,223.964935 
	C235.040833,219.180756 232.159363,216.750412 227.237549,217.105087 
	C222.854065,217.420990 220.295731,220.773483 219.768326,226.932724 
	C224.419189,226.932724 229.047623,227.036331 233.663055,226.837830 
	C234.500076,226.801804 235.283875,225.528290 236.015198,223.964935 
z"/>
<path fill="#8AB1AD" opacity="1.000000" stroke="none" 
	d="
M191.974823,234.011002 
	C186.494003,234.010956 181.505844,234.010956 176.315247,234.010956 
	C176.397476,238.472504 178.173172,241.748306 181.918213,243.472412 
	C187.783768,246.172714 192.895813,244.190491 197.430176,239.889648 
	C199.153625,241.517334 200.711334,242.988495 202.174286,244.370163 
	C198.727005,250.721146 191.224976,253.856781 183.130676,252.639877 
	C174.094513,251.281357 167.472458,245.700409 166.207458,237.390610 
	C165.542862,233.024857 165.537689,228.313400 166.429092,224.005188 
	C168.534180,213.831085 177.106827,208.057526 187.484650,209.052765 
	C196.707214,209.937195 202.566315,216.656113 203.236160,227.215088 
	C203.370926,229.339508 203.255630,231.479782 203.255630,234.011047 
	C199.390427,234.011047 195.928940,234.011047 191.974823,234.011002 
M181.791901,226.942352 
	C185.430420,226.942352 189.068924,226.942352 192.679199,226.942352 
	C193.094025,220.848160 190.714935,217.525604 185.906555,217.088379 
	C180.772614,216.621567 177.658920,219.734222 176.569473,226.701416 
	C178.022690,226.782410 179.457809,226.862396 181.791901,226.942352 
z"/>
<path fill="#A9A1D5" opacity="1.000000" stroke="none" 
	d="
M221.427795,395.809906 
	C231.232803,404.796448 230.610931,415.889374 226.747284,426.920380 
	C223.183640,437.094910 213.267792,439.410614 201.920929,433.173920 
	C201.920929,439.028015 201.920929,444.554596 201.695038,450.674438 
	C201.268188,451.460114 201.112915,451.684204 201.003372,451.940002 
	C198.069458,451.940002 195.135529,451.940002 191.552567,451.940002 
	C191.552567,440.232361 191.552567,428.608429 191.985840,416.374451 
	C195.535538,414.517456 198.651947,413.270477 201.833618,412.480225 
	C201.906708,415.428162 202.090866,417.934052 201.884369,420.407349 
	C201.494888,425.072571 203.684174,427.666901 208.083664,428.467987 
	C212.397751,429.253479 215.791031,427.668640 217.148453,423.431915 
	C219.562180,415.898407 220.139725,408.473816 214.092926,401.862427 
	C216.648499,399.640503 219.038147,397.725220 221.427795,395.809906 
z"/>
<path fill="#7AB598" opacity="1.000000" stroke="none" 
	d="
M172.058075,121.867294 
	C173.458237,124.314819 175.765503,126.653862 176.073868,129.231979 
	C176.762466,134.989563 176.375671,140.869110 176.577698,146.693756 
	C176.726486,150.983398 177.113983,155.264771 177.414474,159.844818 
	C173.715210,159.313080 168.995224,162.305099 165.897232,157.044693 
	C161.319336,160.151688 156.637085,161.804001 151.171204,160.250870 
	C145.232986,158.563538 141.408005,154.354630 141.076721,148.716324 
	C140.729263,142.802704 144.020477,137.964691 150.118256,135.916153 
	C152.617126,135.076675 155.279816,134.592102 157.907166,134.306366 
	C160.362762,134.039307 162.870209,134.249268 166.196701,134.249268 
	C165.832932,131.791107 165.536041,129.784927 165.425751,127.331879 
	C167.760925,125.212440 169.909500,123.539871 172.058075,121.867294 
M159.170624,152.810852 
	C166.072571,150.429794 166.878189,148.919006 165.464325,140.234222 
	C162.945908,140.409409 160.336563,140.485168 157.755402,140.795425 
	C153.950363,141.252823 151.503891,143.380325 151.591629,147.324615 
	C151.685135,151.528519 154.570129,152.922180 159.170624,152.810852 
z"/>
<path fill="#8CADAF" opacity="1.000000" stroke="none" 
	d="
M98.938072,330.022247 
	C95.332748,319.047791 95.252480,308.100006 100.371300,297.646118 
	C104.933479,288.329041 115.434013,284.418427 126.901848,287.017395 
	C135.678665,289.006500 141.450165,296.021118 142.154190,305.811829 
	C138.879532,305.811829 135.616516,305.811829 131.923523,305.811829 
	C130.918701,300.992096 129.392685,296.252441 123.417870,295.134460 
	C115.079163,293.574188 108.906075,298.065857 108.121063,307.183075 
	C107.583466,313.426819 108.161400,319.766602 107.803658,326.547791 
	C104.557129,328.028839 101.747597,329.025543 98.938072,330.022247 
z"/>
<path fill="#77BB94" opacity="1.000000" stroke="none" 
	d="
M109.197807,126.586113 
	C116.648354,126.586113 124.098892,126.586113 131.811981,126.586113 
	C131.811981,129.586670 131.811981,131.990433 131.811981,134.789154 
	C124.371002,134.789154 117.099434,134.789154 109.456375,134.789154 
	C109.456375,140.380020 109.456375,145.590591 109.456375,151.440033 
	C118.285522,151.440033 127.016388,151.440033 135.908020,151.440033 
	C135.908020,154.524338 135.908020,156.977570 135.908020,159.723633 
	C123.513969,159.723633 111.256203,159.723633 98.342499,159.723633 
	C98.342499,151.481461 98.342499,143.214111 98.749863,134.395569 
	C102.504097,131.424973 105.850952,129.005539 109.197807,126.586113 
z"/>
<path fill="#7EB89D" opacity="1.000000" stroke="none" 
	d="
M187.991714,136.027405 
	C187.991806,132.235748 187.991806,128.938721 187.991806,125.357491 
	C185.744980,125.157990 183.842575,124.989067 181.746643,124.802956 
	C181.746643,122.480721 181.746643,120.390892 181.746643,118.127029 
	C183.766830,117.937233 185.545624,117.770126 187.739517,117.564018 
	C187.896713,114.324112 188.053635,111.089752 188.223785,107.582748 
	C191.515488,107.582748 194.599808,107.582748 198.192276,107.582748 
	C198.192276,110.770958 198.192276,113.862869 198.192276,117.409668 
	C200.851501,117.672791 203.063278,117.891640 205.548431,118.137535 
	C205.548431,120.351837 205.548431,122.416626 205.548431,124.827957 
	C203.342865,124.980194 201.250549,125.124611 198.540039,125.311699 
	C198.540039,133.285904 198.172638,141.199524 198.835815,149.025818 
	C198.976166,150.682114 202.884308,152.019119 205.892792,154.074661 
	C205.892792,154.944275 205.892792,157.205475 205.892792,159.440994 
	C194.784225,163.429413 188.098877,158.944672 187.995270,147.496948 
	C187.962158,143.838928 187.991089,140.180359 187.991714,136.027405 
z"/>
<path fill="#AF9CDD" opacity="1.000000" stroke="none" 
	d="
M336.018921,426.852295 
	C338.302612,427.703552 340.330414,428.191711 342.726868,428.768585 
	C342.726868,430.783569 342.726868,433.191467 342.726868,435.598297 
	C331.135101,439.395172 324.917877,435.001221 324.909180,423.038177 
	C324.904022,415.916168 324.908264,408.794189 324.908264,401.327728 
	C322.652527,401.160217 320.738617,401.018066 318.565460,400.856689 
	C318.565460,398.602325 318.565460,396.514771 318.565460,394.158783 
	C320.516663,393.954529 322.437836,393.753418 324.700562,393.516571 
	C324.848206,390.180267 324.990784,386.957886 325.142822,383.522766 
	C328.392792,383.522766 331.327606,383.522766 334.800171,383.522766 
	C334.800171,386.743317 334.800171,389.973785 334.800171,393.555542 
	C337.567322,393.721252 339.829956,393.856720 342.398071,394.010498 
	C342.398071,396.211578 342.398071,398.279327 342.398071,400.804443 
	C340.240051,400.957123 337.997009,401.115784 335.763031,401.273834 
	C335.763031,409.726654 335.763031,418.107910 336.018921,426.852295 
z"/>
<path fill="#85B3A6" opacity="1.000000" stroke="none" 
	d="
M119.012054,218.948059 
	C124.090073,221.333084 129.708572,222.989700 134.124802,226.266617 
	C141.537125,231.766663 140.457382,243.751129 132.739044,249.076401 
	C123.830215,255.223053 107.608910,253.847092 100.411980,245.821472 
	C97.954048,243.080536 96.795067,239.174774 94.355896,234.479309 
	C98.475533,234.479309 100.820007,234.103287 102.956535,234.607834 
	C104.449844,234.960495 106.359222,236.246643 106.876129,237.582703 
	C109.424934,244.170547 121.372368,246.967834 126.268227,241.908768 
	C128.896301,239.193085 128.935455,234.372025 125.778732,232.253296 
	C122.672371,230.168411 119.025642,228.888626 115.328453,226.709335 
	C116.364601,223.758087 117.688324,221.353073 119.012054,218.948059 
z"/>
<path fill="#98AABF" opacity="1.000000" stroke="none" 
	d="
M194.654709,331.116486 
	C192.633011,323.807343 192.931076,316.571198 196.198975,309.741028 
	C200.276657,301.218353 209.404556,298.550262 217.692734,303.095245 
	C218.384018,303.474335 219.072586,303.858307 220.686813,304.751495 
	C220.686813,300.784058 220.686813,297.555420 220.686813,294.326782 
	C220.686813,291.015778 220.686813,287.704742 220.686813,284.196472 
	C224.202759,284.196472 227.309052,284.196472 230.987991,284.196472 
	C230.987991,291.873322 230.987991,299.476044 230.576111,307.610962 
	C227.074509,310.171844 223.984772,312.200531 220.644714,313.984222 
	C218.458221,310.081604 215.285568,308.639709 211.360153,309.233643 
	C207.221680,309.859833 205.113953,312.884430 204.565262,316.717224 
	C204.033264,320.433472 204.121521,324.238556 203.567703,328.025360 
	C200.350266,329.069580 197.502487,330.093018 194.654709,331.116486 
z"/>
<path fill="#7EB89D" opacity="1.000000" stroke="none" 
	d="
M118.764420,218.705505 
	C117.688324,221.353073 116.364601,223.758087 115.020370,226.515640 
	C110.863785,224.850357 106.375053,223.328232 102.675766,220.696457 
	C97.365883,216.918854 96.092964,209.132767 99.076263,203.590363 
	C102.865433,196.550797 112.709709,192.987610 123.310768,194.818604 
	C132.084137,196.333908 137.489548,201.624115 138.840820,210.042801 
	C138.890106,210.349731 138.750580,210.686996 138.609024,211.574539 
	C137.159058,211.662552 135.588577,211.797150 134.015533,211.842621 
	C132.357895,211.890549 130.697815,211.853348 129.127869,211.853348 
	C125.491722,203.858582 123.252571,202.312744 116.288391,202.893341 
	C112.509178,203.208450 109.427025,204.580093 108.555420,208.679459 
	C107.690903,212.745544 110.313187,214.822708 113.441437,216.404526 
	C115.065048,217.225494 116.820755,217.785202 118.764420,218.705505 
z"/>
<path fill="#9FA7C8" opacity="1.000000" stroke="none" 
	d="
M220.895020,314.229218 
	C223.984772,312.200531 227.074509,310.171844 230.502472,308.074921 
	C230.840698,319.799622 230.840698,331.592560 230.840698,343.847778 
	C227.159012,343.224640 222.658051,346.574188 220.670059,340.653503 
	C209.178894,348.359833 198.695053,344.787659 194.676086,331.500336 
	C197.502487,330.093018 200.350266,329.069580 203.697266,328.381958 
	C205.395737,334.122711 208.851105,336.944489 213.668701,336.453247 
	C218.518555,335.958679 220.676010,333.241241 220.729584,327.598999 
	C220.771896,323.142303 220.838959,318.685791 220.895020,314.229218 
z"/>
<path fill="#98AABF" opacity="1.000000" stroke="none" 
	d="
M183.054199,307.976776 
	C189.265656,316.289795 189.280899,325.300354 185.356064,334.347290 
	C182.075851,341.908295 175.498703,344.838074 167.557434,344.816376 
	C159.170013,344.793488 152.732437,340.334717 150.109497,332.214966 
	C153.061890,330.041290 155.825623,328.526428 158.736420,327.391876 
	C159.490067,333.376648 162.239456,336.281647 167.295227,336.659973 
	C171.895935,337.004303 176.175919,334.168152 176.661469,329.014618 
	C177.143753,323.895813 176.128723,318.635925 175.988358,313.153809 
	C178.488998,311.238739 180.771606,309.607758 183.054199,307.976776 
z"/>
<path fill="#6EB588" opacity="1.000000" stroke="none" 
	d="
M109.177765,126.146133 
	C105.850952,129.005539 102.504097,131.424973 98.848022,133.938965 
	C98.538818,123.929039 98.538818,113.824547 98.538818,103.378586 
	C110.923637,103.378586 123.135742,103.378586 135.691666,103.378586 
	C135.691666,105.933792 135.691666,108.505249 135.691666,111.722557 
	C127.012863,111.722557 118.297478,111.722557 109.157722,111.722557 
	C109.157722,116.803131 109.157722,121.254646 109.177765,126.146133 
z"/>
<path fill="#93A2B8" opacity="1.000000" stroke="none" 
	d="
M132.877304,382.538879 
	C130.822449,384.765472 128.589340,386.689728 125.690033,388.762512 
	C119.896255,388.378418 114.768677,387.845825 108.899200,387.236206 
	C108.899200,392.874420 108.899200,397.442108 108.899200,402.009766 
	C105.655640,403.624481 102.412094,405.239166 98.860069,406.947601 
	C98.551590,397.948822 98.551590,388.856323 98.551590,378.914917 
	C110.034332,380.042542 121.695755,376.605621 132.877304,382.538879 
z"/>
<path fill="#90A9B5" opacity="1.000000" stroke="none" 
	d="
M98.946053,330.386963 
	C101.747597,329.025543 104.557129,328.028839 107.749046,327.014832 
	C110.804688,334.282074 115.371910,337.082306 122.765160,335.969727 
	C127.651299,335.234467 129.244949,333.479279 132.207489,325.359802 
	C133.663635,325.292450 135.268784,325.188782 136.875458,325.152039 
	C138.501343,325.114838 140.128738,325.143829 141.707367,325.143829 
	C142.818741,335.413391 134.141129,342.347961 127.095131,344.026489 
	C115.788513,346.719940 103.165031,342.908936 98.946053,330.386963 
z"/>
<path fill="#90A9B5" opacity="1.000000" stroke="none" 
	d="
M182.942291,307.655060 
	C180.771606,309.607758 178.488998,311.238739 175.699524,312.946838 
	C172.859558,309.707306 169.304810,307.749237 165.864746,309.544067 
	C163.040390,311.017700 160.538101,314.244812 159.288254,317.270935 
	C158.108719,320.126862 158.749359,323.734558 158.589355,327.011566 
	C155.825623,328.526428 153.061890,330.041290 150.113312,331.847168 
	C144.745422,319.038483 150.091354,305.187103 161.899490,301.846863 
	C169.797318,299.612793 177.029480,301.021301 182.942291,307.655060 
z"/>
<path fill="#9897C0" opacity="1.000000" stroke="none" 
	d="
M221.195282,395.513306 
	C219.038147,397.725220 216.648499,399.640503 213.723328,401.758179 
	C205.105087,399.782166 202.398117,402.167572 201.768356,412.023499 
	C198.651947,413.270477 195.535538,414.517456 192.093262,415.921265 
	C191.767380,408.947632 191.767380,401.817108 191.767380,394.221130 
	C195.403671,394.117920 199.488266,391.892426 202.367752,396.607605 
	C208.267593,392.212128 214.452530,391.497986 221.195282,395.513306 
z"/>
<path fill="#85B3A6" opacity="1.000000" stroke="none" 
	d="
M147.156448,225.006821 
	C147.156448,214.252335 147.156448,203.497849 147.156448,192.368942 
	C150.361618,192.368942 153.544968,192.368942 157.262619,192.368942 
	C157.262619,201.642853 157.262619,210.863815 156.787933,220.560974 
	C153.260971,222.360382 150.208710,223.683609 147.156448,225.006821 
z"/>
<path fill="#8AB1AD" opacity="1.000000" stroke="none" 
	d="
M147.088440,225.470551 
	C150.208710,223.683609 153.260971,222.360382 156.681595,221.019394 
	C157.049957,231.093826 157.049957,241.186005 157.049957,251.643707 
	C153.911301,251.643707 150.717682,251.643707 147.020416,251.643707 
	C147.020416,243.060120 147.020416,234.497192 147.088440,225.470551 
z"/>
<path fill="#77BB94" opacity="1.000000" stroke="none" 
	d="
M171.970276,121.532730 
	C169.909500,123.539871 167.760925,125.212440 165.271851,126.953384 
	C160.115143,123.357796 156.730484,124.350067 152.579483,128.118378 
	C150.316391,130.172836 145.957870,129.919083 142.008759,130.829865 
	C142.660614,123.667992 146.268875,120.119690 151.400375,118.453316 
	C158.512970,116.143616 165.703308,115.495361 171.970276,121.532730 
z"/>
<path fill="#9897C0" opacity="1.000000" stroke="none" 
	d="
M201.273682,451.952942 
	C201.112915,451.684204 201.268188,451.460114 201.629181,451.138733 
	C201.707489,451.328491 201.625748,451.647217 201.273682,451.952942 
z"/>
<path fill="#040304" opacity="1.000000" stroke="none" 
	d="
M278.729095,221.663818 
	C279.082825,227.421555 279.940765,232.900620 279.256134,238.179642 
	C278.618958,243.093109 274.627747,245.240707 270.124542,244.526398 
	C265.348450,243.768829 263.331451,240.953323 263.671814,236.129364 
	C263.893921,232.981110 263.807953,229.800430 263.684021,226.641174 
	C263.532623,222.783325 263.744812,219.243225 268.211700,217.742661 
	C272.605042,216.266846 276.040436,217.406357 278.729095,221.663818 
z"/>
<path fill="#060708" opacity="1.000000" stroke="none" 
	d="
M288.519806,421.574768 
	C291.749268,415.024536 297.317963,416.585693 302.392212,416.362213 
	C303.646545,424.752258 301.764893,428.055054 295.602692,428.842957 
	C290.950226,429.437836 288.702698,427.286804 288.519806,421.574768 
z"/>
<path fill="#040304" opacity="1.000000" stroke="none" 
	d="
M108.968605,402.441284 
	C108.899200,397.442108 108.899200,392.874420 108.899200,387.236206 
	C114.768677,387.845825 119.896255,388.378418 125.429169,388.984863 
	C129.132370,392.699432 130.282761,396.843292 128.064651,401.364716 
	C125.903191,405.770630 121.745865,406.198486 117.418907,406.019836 
	C115.434425,405.937836 113.352875,406.350433 111.492401,405.863007 
	C110.482445,405.598358 109.844025,403.915741 108.968605,402.441284 
z"/>
<path fill="#060708" opacity="1.000000" stroke="none" 
	d="
M157.893311,409.391968 
	C159.854080,402.930389 162.880432,400.469666 167.549454,401.133820 
	C172.020538,401.769775 174.150681,404.864014 173.970322,411.405914 
	C168.579544,410.874115 163.224777,410.345886 157.893311,409.391968 
z"/>
<path fill="#060708" opacity="1.000000" stroke="none" 
	d="
M253.220917,318.941833 
	C250.579712,319.142273 249.285812,318.749603 249.919189,315.997223 
	C250.928665,311.610474 254.940720,308.550293 259.383972,309.110077 
	C263.750458,309.660187 265.977905,312.829224 265.932281,318.942139 
	C261.860291,318.942139 257.776215,318.942139 253.220917,318.941833 
z"/>
<path fill="#060708" opacity="1.000000" stroke="none" 
	d="
M249.054535,402.991089 
	C256.954315,398.959656 262.027771,402.003113 262.086060,410.653320 
	C256.860962,410.653320 251.632523,410.653320 245.170883,410.653320 
	C246.498001,407.917633 247.629974,405.584259 249.054535,402.991089 
z"/>
<path fill="#060708" opacity="1.000000" stroke="none" 
	d="
M236.053726,224.395508 
	C235.283875,225.528290 234.500076,226.801804 233.663055,226.837830 
	C229.047623,227.036331 224.419189,226.932724 219.768326,226.932724 
	C220.295731,220.773483 222.854065,217.420990 227.237549,217.105087 
	C232.159363,216.750412 235.040833,219.180756 236.053726,224.395508 
z"/>
<path fill="#060708" opacity="1.000000" stroke="none" 
	d="
M181.342407,226.942368 
	C179.457809,226.862396 178.022690,226.782410 176.569473,226.701416 
	C177.658920,219.734222 180.772614,216.621567 185.906555,217.088379 
	C190.714935,217.525604 193.094025,220.848160 192.679199,226.942352 
	C189.068924,226.942352 185.430420,226.942352 181.342407,226.942368 
z"/>
<path fill="#040304" opacity="1.000000" stroke="none" 
	d="
M201.833618,412.480225 
	C202.398117,402.167572 205.105087,399.782166 213.557404,402.064819 
	C220.139725,408.473816 219.562180,415.898407 217.148453,423.431915 
	C215.791031,427.668640 212.397751,429.253479 208.083664,428.467987 
	C203.684174,427.666901 201.494888,425.072571 201.884369,420.407349 
	C202.090866,417.934052 201.906708,415.428162 201.833618,412.480225 
z"/>
<path fill="#060708" opacity="1.000000" stroke="none" 
	d="
M158.776276,152.859192 
	C154.570129,152.922180 151.685135,151.528519 151.591629,147.324615 
	C151.503891,143.380325 153.950363,141.252823 157.755402,140.795425 
	C160.336563,140.485168 162.945908,140.409409 165.464325,140.234222 
	C166.878189,148.919006 166.072571,150.429794 158.776276,152.859192 
z"/>
<path fill="#060708" opacity="1.000000" stroke="none" 
	d="
M220.644714,313.984222 
	C220.838959,318.685791 220.771896,323.142303 220.729584,327.598999 
	C220.676010,333.241241 218.518555,335.958679 213.668701,336.453247 
	C208.851105,336.944489 205.395737,334.122711 204.066925,328.361206 
	C204.121521,324.238556 204.033264,320.433472 204.565262,316.717224 
	C205.113953,312.884430 207.221680,309.859833 211.360153,309.233643 
	C215.285568,308.639709 218.458221,310.081604 220.644714,313.984222 
z"/>
<path fill="#040304" opacity="1.000000" stroke="none" 
	d="
M158.736404,327.391876 
	C158.749359,323.734558 158.108719,320.126862 159.288254,317.270935 
	C160.538101,314.244812 163.040390,311.017700 165.864746,309.544067 
	C169.304810,307.749237 172.859558,309.707306 175.481506,313.230957 
	C176.128723,318.635925 177.143753,323.895813 176.661469,329.014618 
	C176.175919,334.168152 171.895935,337.004303 167.295227,336.659973 
	C162.239456,336.281647 159.490067,333.376648 158.736404,327.391876 
z"/>
</svg>